<?xml version="1.0" standalone="no"?>
<!DOCTYPE svg PUBLIC "-//W3C//DTD SVG 20010904//EN"
 "http://www.w3.org/TR/2001/REC-SVG-20010904/DTD/svg10.dtd">
<svg version="1.0" xmlns="http://www.w3.org/2000/svg"
 width="164.000000pt" height="84.000000pt" viewBox="0 0 164.000000 84.000000"
 preserveAspectRatio="xMidYMid meet">

<g transform="translate(0.000000,84.000000) scale(0.100000,-0.100000)"
fill="#000000" stroke="none">
<path d="M517 793 c-4 -3 -7 -20 -6 -37 l1 -31 11 30 12 30 6 -40 6 -40 2 48
c1 33 -3 47 -12 47 -8 0 -17 -3 -20 -7z"/>
<path d="M835 780 c-4 -6 8 -10 30 -10 22 0 34 4 30 10 -3 6 -17 10 -30 10
-13 0 -27 -4 -30 -10z"/>
<path d="M1060 779 c0 -5 10 -9 22 -9 12 0 18 3 14 7 -10 11 -36 12 -36 2z"/>
<path d="M945 750 c13 -12 17 -12 30 0 13 13 11 15 -15 15 -26 0 -27 -2 -15
-15z"/>
<path d="M507 707 c-11 -29 -9 -43 4 -30 6 6 9 19 7 29 -3 18 -4 18 -11 1z"/>
<path d="M731 694 c0 -11 3 -14 6 -6 3 7 2 16 -1 19 -3 4 -6 -2 -5 -13z"/>
<path d="M1180 665 c0 -27 3 -46 6 -42 3 3 6 22 6 42 0 20 -3 39 -6 42 -3 4
-6 -15 -6 -42z"/>
<path d="M552 680 c0 -14 2 -19 5 -12 2 6 2 18 0 25 -3 6 -5 1 -5 -13z"/>
<path d="M502 635 c0 -16 2 -22 5 -12 2 9 2 23 0 30 -3 6 -5 -1 -5 -18z"/>
<path d="M553 605 c-1 -19 3 -32 8 -29 11 6 11 35 1 51 -5 8 -8 -1 -9 -22z"/>
<path d="M1150 580 c-6 -11 -8 -20 -6 -20 3 0 10 9 16 20 6 11 8 20 6 20 -3 0
-10 -9 -16 -20z"/>
<path d="M501 578 c0 -9 -4 -25 -7 -35 -5 -14 -4 -15 5 -7 7 7 11 22 8 35 -2
13 -5 16 -6 7z"/>
<path d="M420 512 c0 -6 5 -14 10 -17 6 -3 10 -21 10 -39 0 -19 7 -39 15 -46
22 -18 44 14 44 60 0 29 -2 31 -9 15 -5 -11 -9 -30 -9 -42 -1 -38 -20 -26 -27
17 -6 36 -34 79 -34 52z"/>
<path d="M716 479 c-8 -39 -8 -64 0 -57 7 7 17 88 11 88 -3 0 -7 -14 -11 -31z"/>
<path d="M747 490 c3 -11 7 -20 9 -20 2 0 4 9 4 20 0 11 -4 20 -9 20 -5 0 -7
-9 -4 -20z"/>
<path d="M1200 488 c0 -5 8 -8 18 -8 9 0 27 -3 40 -6 12 -4 22 -2 22 4 0 5
-18 12 -40 14 -22 2 -40 0 -40 -4z"/>
<path d="M550 474 c0 -10 5 -26 10 -34 8 -11 9 -7 4 15 -8 37 -14 45 -14 19z"/>
<path d="M117 464 c-27 -14 -43 -46 -32 -64 10 -16 27 0 22 21 -4 15 3 21 31
29 42 11 42 11 48 -29 4 -26 2 -31 -20 -37 -14 -3 -33 -4 -41 -1 -8 4 -17 2
-20 -3 -4 -6 12 -10 38 -10 36 0 46 4 57 25 11 20 10 28 -3 48 -20 31 -47 38
-80 21z"/>
<path d="M330 442 c-25 -21 -25 -21 -2 -17 16 3 22 -1 22 -15 0 -22 15 -34 31
-25 7 5 5 11 -5 18 -8 7 -16 23 -18 36 l-3 23 -25 -20z"/>
<path d="M390 440 c0 -5 5 -10 10 -10 6 0 10 5 10 10 0 6 -4 10 -10 10 -5 0
-10 -4 -10 -10z"/>
<path d="M636 428 c-8 -32 -7 -38 4 -38 6 0 10 9 10 20 0 12 7 20 18 20 14 0
15 2 2 10 -22 14 -27 12 -34 -12z"/>
<path d="M1020 430 c6 -11 20 -20 33 -19 l22 0 -22 11 c-13 6 -23 15 -23 20 0
4 -5 8 -10 8 -7 0 -7 -6 0 -20z"/>
<path d="M820 419 c-41 -5 -39 -6 22 -7 37 -1 69 2 72 7 6 9 -25 9 -94 0z"/>
<path d="M680 390 c0 -11 4 -20 9 -20 17 0 19 15 5 28 -12 11 -14 9 -14 -8z"/>
<path d="M627 374 c-4 -4 -7 -23 -6 -43 l1 -36 9 33 c11 36 9 58 -4 46z"/>
<path d="M591 82 c0 -7 -5 -10 -11 -7 -5 3 -10 -3 -10 -14 0 -11 5 -23 10 -26
13 -8 23 18 17 42 -3 10 -5 12 -6 5z"/>
</g>
</svg>
